<svg width="82" height="82" viewBox="0 0 82 82" fill="none" xmlns="http://www.w3.org/2000/svg">
<path d="M54.6667 37.5834C60.3383 37.5834 64.8825 33.005 64.8825 27.3334C64.8825 21.6617 60.3383 17.0834 54.6667 17.0834C48.995 17.0834 44.4167 21.6617 44.4167 27.3334C44.4167 33.005 48.995 37.5834 54.6667 37.5834ZM27.3333 37.5834C33.005 37.5834 37.5492 33.005 37.5492 27.3334C37.5492 21.6617 33.005 17.0834 27.3333 17.0834C21.6617 17.0834 17.0833 21.6617 17.0833 27.3334C17.0833 33.005 21.6617 37.5834 27.3333 37.5834ZM27.3333 44.4167C19.3725 44.4167 3.41667 48.4142 3.41667 56.375V64.9167H51.25V56.375C51.25 48.4142 35.2942 44.4167 27.3333 44.4167ZM54.6667 44.4167C53.6758 44.4167 52.5483 44.485 51.3525 44.5875C55.3158 47.4575 58.0833 51.3184 58.0833 56.375V64.9167H78.5833V56.375C78.5833 48.4142 62.6275 44.4167 54.6667 44.4167Z" fill="white"/>
</svg>
