<svg width="88" height="88" viewBox="0 0 88 88" fill="none" xmlns="http://www.w3.org/2000/svg">
<path d="M40.3333 51.3334H33C33 33.11 47.7766 18.3334 66 18.3334V25.6667C51.81 25.6667 40.3333 37.1434 40.3333 51.3334ZM66 40.3334V33C55.88 33 47.6666 41.2134 47.6666 51.3334H55C55 45.2467 59.9133 40.3334 66 40.3334ZM25.6666 14.6667C25.6666 10.5967 22.4033 7.33337 18.3333 7.33337C14.2633 7.33337 11 10.5967 11 14.6667C11 18.7367 14.2633 22 18.3333 22C22.4033 22 25.6666 18.7367 25.6666 14.6667ZM41.9833 16.5H34.65C33.77 21.7067 29.2966 25.6667 23.8333 25.6667H12.8333C9.78998 25.6667 7.33331 28.1234 7.33331 31.1667V40.3334H29.3333V32.0467C36.1533 29.8834 41.25 23.87 41.9833 16.5ZM69.6666 62.3334C73.7366 62.3334 77 59.07 77 55C77 50.93 73.7366 47.6667 69.6666 47.6667C65.5966 47.6667 62.3333 50.93 62.3333 55C62.3333 59.07 65.5966 62.3334 69.6666 62.3334ZM75.1666 66H64.1666C58.7033 66 54.23 62.04 53.35 56.8334H46.0166C46.75 64.2034 51.8466 70.2167 58.6666 72.38V80.6667H80.6666V71.5C80.6666 68.4567 78.21 66 75.1666 66Z" fill="white"/>
</svg>
