<svg width="80" height="80" viewBox="0 0 80 80" fill="none" xmlns="http://www.w3.org/2000/svg">
<path d="M40 10C23.4333 10 10 23.4333 10 40C10 56.5667 23.4333 70 40 70C42.7667 70 45 67.7667 45 65C45 63.7 44.5 62.5333 43.7 61.6333C42.9333 60.7667 42.4333 59.6 42.4333 58.3333C42.4333 55.5667 44.6667 53.3333 47.4333 53.3333H53.3333C62.5333 53.3333 70 45.8667 70 36.6667C70 21.9333 56.5667 10 40 10ZM21.6667 40C18.9 40 16.6667 37.7667 16.6667 35C16.6667 32.2333 18.9 30 21.6667 30C24.4333 30 26.6667 32.2333 26.6667 35C26.6667 37.7667 24.4333 40 21.6667 40ZM31.6667 26.6667C28.9 26.6667 26.6667 24.4333 26.6667 21.6667C26.6667 18.9 28.9 16.6667 31.6667 16.6667C34.4333 16.6667 36.6667 18.9 36.6667 21.6667C36.6667 24.4333 34.4333 26.6667 31.6667 26.6667ZM48.3333 26.6667C45.5667 26.6667 43.3333 24.4333 43.3333 21.6667C43.3333 18.9 45.5667 16.6667 48.3333 16.6667C51.1 16.6667 53.3333 18.9 53.3333 21.6667C53.3333 24.4333 51.1 26.6667 48.3333 26.6667ZM58.3333 40C55.5667 40 53.3333 37.7667 53.3333 35C53.3333 32.2333 55.5667 30 58.3333 30C61.1 30 63.3333 32.2333 63.3333 35C63.3333 37.7667 61.1 40 58.3333 40Z" fill="white"/>
</svg>
