<svg width="82" height="83" viewBox="0 0 82 83" fill="none" xmlns="http://www.w3.org/2000/svg">
<path d="M44.4167 29.6379C41.7175 29.6379 39.5308 31.8513 39.5308 34.5833C39.5308 37.3154 41.7175 39.5288 44.4167 39.5288C47.1158 39.5288 49.3025 37.3154 49.3025 34.5833C49.3025 31.8513 47.1158 29.6379 44.4167 29.6379Z" fill="white"/>
<path d="M44.4167 10.375C31.6042 10.375 21.1833 20.5425 20.5683 33.3383L14.0083 42.1917C13.1542 43.3329 13.9742 44.9583 15.375 44.9583H20.5V55.3333C20.5 59.1375 23.575 62.25 27.3333 62.25H30.75V72.625H54.6667V56.44C62.73 52.5667 68.3333 44.2321 68.3333 34.5833C68.3333 21.1996 57.6392 10.375 44.4167 10.375ZM54.6667 34.5833C54.6667 35.0329 54.6325 35.4825 54.5983 35.9321L57.4342 38.2146C57.7075 38.4221 57.7758 38.7679 57.605 39.0792L54.8717 43.8862C54.7008 44.1975 54.325 44.3012 54.0517 44.1975L50.6692 42.8142C49.9517 43.3675 49.2 43.8171 48.38 44.1629L47.8333 47.8288C47.7992 48.1746 47.4917 48.4167 47.15 48.4167H41.6833C41.3417 48.4167 41.0683 48.1746 41 47.8288L40.4875 44.1629C39.6333 43.8171 38.8817 43.3675 38.1642 42.8142L34.7817 44.1975C34.4742 44.3012 34.0983 44.1975 33.9275 43.8862L31.1942 39.0792C31.0233 38.8025 31.0917 38.4221 31.365 38.2146L34.235 35.9321C34.2008 35.4825 34.1667 35.0329 34.1667 34.5833C34.1667 34.1337 34.235 33.6496 34.3033 33.2346L31.3992 30.9521C31.1258 30.7446 31.0575 30.3987 31.2283 30.0529L33.9617 25.2804C34.1325 24.9692 34.4742 24.8654 34.7817 24.9692L38.1983 26.3525C38.8817 25.8337 39.6675 25.3496 40.4875 25.0037L41 21.3379C41.0683 20.9921 41.3417 20.75 41.6833 20.75H47.15C47.4917 20.75 47.765 20.9921 47.8333 21.3379L48.3458 25.0037C49.1658 25.3496 49.9175 25.7992 50.635 26.3525L54.0517 24.9692C54.3592 24.8654 54.735 24.9692 54.8717 25.2804L57.605 30.0529C57.7758 30.3642 57.7075 30.7446 57.4342 30.9521L54.53 33.2346C54.6325 33.6496 54.6667 34.0992 54.6667 34.5833Z" fill="white"/>
</svg>
