<svg width="83" height="83" viewBox="0 0 83 83" fill="none" xmlns="http://www.w3.org/2000/svg">
<path d="M65.7083 17.2917H58.7917V10.375H24.2083V17.2917H17.2917C13.4875 17.2917 10.375 20.4042 10.375 24.2083V27.6667C10.375 36.4854 17.015 43.6787 25.5571 44.7508C27.7358 49.9383 32.4046 53.8462 38.0417 54.9875V65.7083H24.2083V72.625H58.7917V65.7083H44.9583V54.9875C50.5954 53.8462 55.2642 49.9383 57.4429 44.7508C65.985 43.6787 72.625 36.4854 72.625 27.6667V24.2083C72.625 20.4042 69.5125 17.2917 65.7083 17.2917ZM17.2917 27.6667V24.2083H24.2083V37.4192C20.1967 35.9667 17.2917 32.1625 17.2917 27.6667ZM65.7083 27.6667C65.7083 32.1625 62.8033 35.9667 58.7917 37.4192V24.2083H65.7083V27.6667Z" fill="white"/>
</svg>
