<svg width="61" height="60" viewBox="0 0 61 60" fill="none" xmlns="http://www.w3.org/2000/svg">
<path d="M30.5 0C13.7263 0 0.125 13.4333 0.125 30C0.125 46.5667 13.7263 60 30.5 60C33.3013 60 35.5625 57.7667 35.5625 55C35.5625 53.7 35.0562 52.5333 34.2463 51.6333C33.47 50.7667 32.9637 49.6 32.9637 48.3333C32.9637 45.5667 35.225 43.3333 38.0262 43.3333H44C53.315 43.3333 60.875 35.8667 60.875 26.6667C60.875 11.9333 47.2738 0 30.5 0ZM11.9375 30C9.13625 30 6.875 27.7667 6.875 25C6.875 22.2333 9.13625 20 11.9375 20C14.7387 20 17 22.2333 17 25C17 27.7667 14.7387 30 11.9375 30ZM22.0625 16.6667C19.2612 16.6667 17 14.4333 17 11.6667C17 8.9 19.2612 6.66667 22.0625 6.66667C24.8638 6.66667 27.125 8.9 27.125 11.6667C27.125 14.4333 24.8638 16.6667 22.0625 16.6667ZM38.9375 16.6667C36.1362 16.6667 33.875 14.4333 33.875 11.6667C33.875 8.9 36.1362 6.66667 38.9375 6.66667C41.7388 6.66667 44 8.9 44 11.6667C44 14.4333 41.7388 16.6667 38.9375 16.6667ZM49.0625 30C46.2612 30 44 27.7667 44 25C44 22.2333 46.2612 20 49.0625 20C51.8638 20 54.125 22.2333 54.125 25C54.125 27.7667 51.8638 30 49.0625 30Z" fill="#333659"/>
</svg>
