<svg width="18" height="18" viewBox="0 0 18 18" fill="none" xmlns="http://www.w3.org/2000/svg">
<path d="M8.99788 0C6.61149 0 4.32282 0.948211 2.63539 2.63604C0.947962 4.32387 0 6.61305 0 9C0 11.3869 0.947962 13.6761 2.63539 15.364C4.32282 17.0518 6.61149 18 8.99788 18H9.57221V16.8511H8.99788C7.44563 16.8502 5.92848 16.389 4.63824 15.5259C3.34801 14.6627 2.34261 13.4362 1.74917 12.0015C1.15574 10.5669 1.00091 8.9884 1.30426 7.46573C1.6076 5.94305 2.35549 4.54452 3.45339 3.44696C4.55129 2.34939 5.94991 1.60207 7.47239 1.29948C8.99487 0.996892 10.5728 1.15262 12.0069 1.74697C13.4409 2.34132 14.6665 3.34762 15.5288 4.63863C16.3911 5.92963 16.8513 7.44739 16.8513 9V10.4247C16.8513 10.893 16.6653 11.3422 16.3342 11.6734C16.0031 12.0046 15.554 12.1906 15.0858 12.1906C14.6175 12.1906 14.1685 12.0046 13.8374 11.6734C13.5063 11.3422 13.3202 10.893 13.3202 10.4247V6.11234L13.1186 5.94213C12.2056 5.1634 11.199 4.68085 9.00212 4.68085C8.26568 4.67691 7.54048 4.86142 6.89544 5.21685C6.2504 5.57228 5.70696 6.08682 5.31677 6.71154C4.92659 7.33627 4.70261 8.05044 4.66616 8.78615C4.62971 9.52187 4.78198 10.2547 5.1085 10.9149C5.43502 11.5752 5.92496 12.141 6.53171 12.5584C7.13845 12.9759 7.84185 13.2312 8.57507 13.3001C9.30828 13.3691 10.0469 13.2492 10.7208 12.9521C11.3947 12.655 11.9814 12.1904 12.4251 11.6026C12.6944 12.2144 13.166 12.7149 13.7607 13.02C14.3553 13.3251 15.0369 13.4162 15.6908 13.2781C16.3447 13.1399 16.9311 12.7809 17.3516 12.2613C17.7721 11.7417 18.0011 11.0932 18 10.4247V9C17.9971 6.61321 17.0475 4.32509 15.3598 2.63777C13.6721 0.950458 11.3841 0.00180159 8.99788 0ZM8.99788 12.1702C8.15728 12.1702 7.35111 11.8362 6.75672 11.2417C6.16233 10.6471 5.82841 9.84079 5.82841 9C5.82841 8.15921 6.16233 7.35285 6.75672 6.75832C7.35111 6.16379 8.15728 5.82979 8.99788 5.82979C10.8238 5.82979 11.5913 6.2017 12.1673 6.65107V9C12.1662 9.84045 11.8319 10.6462 11.2378 11.2404C10.6436 11.8347 9.83813 12.1691 8.99788 12.1702Z" fill="white"/>
</svg>
