<svg width="18" height="18" viewBox="0 0 18 18" fill="none" xmlns="http://www.w3.org/2000/svg">
<path d="M13.2554 10.5154L11.5397 12.2294C11.2938 12.4648 10.9666 12.5961 10.6263 12.5961C10.286 12.5961 9.95888 12.4648 9.71304 12.2294L5.76996 8.28627C5.5283 8.04375 5.39261 7.71533 5.39261 7.37295C5.39261 7.03058 5.5283 6.70216 5.76996 6.45963L7.48566 4.74473L2.74101 0L2.34023 0.400788C0.841643 1.90245 0 3.93732 0 6.05884C0 8.18037 0.841643 10.2152 2.34023 11.7169L6.28248 15.6601C7.78423 17.1585 9.81902 18 11.9404 18C14.0618 18 16.0966 17.1585 17.5984 15.6601L18 15.2593L13.2554 10.5154Z" fill="white"/>
</svg>
