<svg width="28" height="28" viewBox="0 0 28 28" fill="none" xmlns="http://www.w3.org/2000/svg">
<path d="M21.4404 24.1197C21.2564 19.0253 18.5464 16.085 14.0041 16.085C9.46178 16.085 6.75175 19.0253 6.56641 24.1528V25.8408C8.79029 27.2511 11.3694 28 14.0028 28C16.6361 28 19.2152 27.2511 21.4391 25.8408L21.4404 24.1197Z" fill="white"/>
<path d="M14.0039 1.75606e-05C11.1572 -0.00449305 8.37691 0.860042 6.03475 2.47807C3.69258 4.09609 1.9001 6.39049 0.896927 9.05458C-0.106247 11.7187 -0.272322 14.6255 0.420907 17.3865C1.11414 20.1475 2.63364 22.6312 4.77629 24.5054V24.1202C4.94442 19.4428 7.09576 16.1648 10.5697 14.8965C9.62794 14.1787 8.93506 13.1836 8.58859 12.0513C8.24212 10.9191 8.25951 9.70662 8.63832 8.58474C9.01713 7.46285 9.73828 6.48804 10.7002 5.79755C11.6622 5.10705 12.8165 4.73565 14.0006 4.73565C15.1847 4.73565 16.339 5.10705 17.3009 5.79755C18.2629 6.48804 18.984 7.46285 19.3628 8.58474C19.7416 9.70662 19.759 10.9191 19.4126 12.0513C19.0661 13.1836 18.3732 14.1787 17.4315 14.8965C20.9054 16.1635 23.0554 19.4362 23.2222 24.0871V24.5068C25.365 22.6329 26.8848 20.1497 27.5785 17.3889C28.2722 14.6282 28.1067 11.7215 27.1041 9.0573C26.1015 6.39314 24.3097 4.09847 21.968 2.47997C19.6264 0.861476 16.8465 -0.00372157 13.9999 1.75606e-05H14.0039Z" fill="white"/>
<path d="M14.0033 14.298C16.1419 14.298 17.8757 12.5643 17.8757 10.4256C17.8757 8.28696 16.1419 6.55322 14.0033 6.55322C11.8646 6.55322 10.1309 8.28696 10.1309 10.4256C10.1309 12.5643 11.8646 14.298 14.0033 14.298Z" fill="white"/>
</svg>
