<svg width="15" height="15" viewBox="0 0 15 15" fill="none" xmlns="http://www.w3.org/2000/svg">
<path d="M7.50001 0C6.01665 0 4.56658 0.43988 3.33321 1.26399C2.09985 2.0881 1.13855 3.25943 0.570895 4.62987C0.00323884 6.00032 -0.145271 7.50832 0.144117 8.96318C0.433506 10.418 1.1478 11.7544 2.1967 12.8033C3.24559 13.8522 4.58198 14.5665 6.03683 14.8559C7.49169 15.1453 8.99969 14.9968 10.3701 14.4291C11.7406 13.8614 12.9119 12.9002 13.736 11.6668C14.5601 10.4334 15 8.98336 15 7.5C14.9976 5.51162 14.2066 3.60539 12.8006 2.19939C11.3946 0.793401 9.48838 0.00243984 7.50001 0ZM7.90424 11.4894H6.9468L6.93264 10.5319H7.90424V11.4894ZM9.03899 7.40284C8.4241 7.89433 7.89431 8.31844 7.89431 9.09716V9.57588H6.93686V9.09716C6.93686 7.85815 7.77092 7.19149 8.44042 6.65532C8.98368 6.22128 9.317 5.93476 9.317 5.54185C9.317 4.59788 8.46594 3.83121 7.41558 3.83121C6.63544 3.83121 5.92126 4.27376 5.64254 4.93121L5.45533 5.37234L4.57448 4.99716L4.76242 4.55674C5.19717 3.53475 6.23972 2.87376 7.41773 2.87376C8.99361 2.87376 10.2766 4.07093 10.2766 5.54185C10.2766 6.41277 9.61915 6.9383 9.04114 7.40142L9.03899 7.40284Z" fill="#891A6A"/>
</svg>
