<svg width="54" height="61" viewBox="0 0 54 61" fill="none" xmlns="http://www.w3.org/2000/svg">
<path d="M30.3333 0.125C17.8333 0.125 7.66665 10.0475 7.06665 22.535L0.666651 31.175C-0.166682 32.2887 0.633318 33.875 1.99998 33.875H6.99998V44C6.99998 47.7125 9.99998 50.75 13.6667 50.75H17V60.875H40.3333V45.08C48.2 41.3 53.6666 33.1662 53.6666 23.75C53.6666 10.6888 43.2333 0.125 30.3333 0.125ZM40.3333 23.75C40.3333 24.1887 40.3 24.6275 40.2666 25.0663L43.0333 27.2938C43.3 27.4963 43.3667 27.8337 43.2 28.1375L40.5333 32.8287C40.3666 33.1325 40 33.2337 39.7333 33.1325L36.4333 31.7825C35.7333 32.3225 35 32.7613 34.2 33.0988L33.6666 36.6763C33.6333 37.0137 33.3333 37.25 33 37.25H27.6667C27.3333 37.25 27.0667 37.0137 27 36.6763L26.5 33.0988C25.6667 32.7613 24.9333 32.3225 24.2333 31.7825L20.9333 33.1325C20.6333 33.2337 20.2667 33.1325 20.1 32.8287L17.4333 28.1375C17.2667 27.8675 17.3333 27.4963 17.6 27.2938L20.4 25.0663C20.3667 24.6275 20.3333 24.1887 20.3333 23.75C20.3333 23.3113 20.4 22.8387 20.4667 22.4337L17.6333 20.2062C17.3666 20.0037 17.3 19.6662 17.4667 19.3287L20.1333 14.6712C20.3 14.3675 20.6333 14.2662 20.9333 14.3675L24.2667 15.7175C24.9333 15.2112 25.7 14.7388 26.5 14.4012L27 10.8238C27.0667 10.4862 27.3333 10.25 27.6667 10.25H33C33.3333 10.25 33.6 10.4862 33.6666 10.8238L34.1666 14.4012C34.9666 14.7388 35.7 15.1775 36.4 15.7175L39.7333 14.3675C40.0333 14.2662 40.4 14.3675 40.5333 14.6712L43.2 19.3287C43.3667 19.6325 43.3 20.0037 43.0333 20.2062L40.2 22.4337C40.3 22.8387 40.3333 23.2775 40.3333 23.75Z" fill="#333659"/>
</svg>
