<svg width="69" height="69" viewBox="0 0 69 69" fill="none" xmlns="http://www.w3.org/2000/svg">
<path d="M31.125 41.25H24.375C24.375 24.4763 37.9762 10.875 54.75 10.875V17.625C41.6888 17.625 31.125 28.1888 31.125 41.25ZM54.75 31.125V24.375C45.435 24.375 37.875 31.935 37.875 41.25H44.625C44.625 35.6475 49.1475 31.125 54.75 31.125ZM17.625 7.5C17.625 3.75375 14.6213 0.75 10.875 0.75C7.12875 0.75 4.125 3.75375 4.125 7.5C4.125 11.2463 7.12875 14.25 10.875 14.25C14.6213 14.25 17.625 11.2463 17.625 7.5ZM32.6437 9.1875H25.8937C25.0837 13.98 20.9662 17.625 15.9375 17.625H5.8125C3.01125 17.625 0.75 19.8862 0.75 22.6875V31.125H21V23.4975C27.2775 21.5062 31.9688 15.9712 32.6437 9.1875ZM58.125 51.375C61.8713 51.375 64.875 48.3713 64.875 44.625C64.875 40.8787 61.8713 37.875 58.125 37.875C54.3787 37.875 51.375 40.8787 51.375 44.625C51.375 48.3713 54.3787 51.375 58.125 51.375ZM63.1875 54.75H53.0625C48.0337 54.75 43.9163 51.105 43.1063 46.3125H36.3563C37.0312 53.0962 41.7225 58.6312 48 60.6225V68.25H68.25V59.8125C68.25 57.0112 65.9887 54.75 63.1875 54.75Z" fill="#333659"/>
</svg>
