<svg width="61" height="61" viewBox="0 0 61 61" fill="none" xmlns="http://www.w3.org/2000/svg">
<path d="M54.125 6.875H47.375V0.125H13.625V6.875H6.875C3.1625 6.875 0.125 9.9125 0.125 13.625V17C0.125 25.6063 6.605 32.6262 14.9412 33.6725C17.0675 38.735 21.6238 42.5487 27.125 43.6625V54.125H13.625V60.875H47.375V54.125H33.875V43.6625C39.3763 42.5487 43.9325 38.735 46.0588 33.6725C54.395 32.6262 60.875 25.6063 60.875 17V13.625C60.875 9.9125 57.8375 6.875 54.125 6.875ZM6.875 17V13.625H13.625V26.5175C9.71 25.1 6.875 21.3875 6.875 17ZM54.125 17C54.125 21.3875 51.29 25.1 47.375 26.5175V13.625H54.125V17Z" fill="#333659"/>
</svg>
