<svg width="18" height="18" viewBox="0 0 18 18" fill="none" xmlns="http://www.w3.org/2000/svg">
<path d="M17.9995 8.92367C17.9992 10.1086 17.7897 11.1733 17.3949 12.2037C17.0914 12.996 16.689 13.7338 16.182 14.4144C15.9226 14.7626 15.6449 15.096 15.3375 15.4031C14.8262 15.9141 14.2536 16.3453 13.6304 16.7103C12.8676 17.157 12.0583 17.4922 11.2034 17.7169C10.7789 17.8286 10.3479 17.9067 9.9115 17.9527C9.67823 17.9773 9.44436 17.9888 9.20957 17.9971C8.94863 18.0059 8.68829 17.9986 8.42887 17.9815C7.82852 17.9423 7.2379 17.8416 6.65823 17.6792C5.66343 17.401 4.73583 16.9776 3.88245 16.3934C3.47948 16.1175 3.09931 15.8134 2.74409 15.4792C2.2067 14.9734 1.75659 14.3968 1.37277 13.7678C0.876131 12.954 0.511481 12.0839 0.273044 11.1608C0.172985 10.7737 0.101819 10.3807 0.0552871 9.98356C0.00297694 9.5374 -0.0104047 9.08942 0.00753887 8.64113C0.0419055 7.79717 0.19914 6.97481 0.469815 6.17464C0.722546 5.4277 1.0577 4.7203 1.48986 4.05943C1.84539 3.51564 2.24715 3.00866 2.70942 2.55247C3.21884 2.04944 3.7906 1.627 4.4095 1.26783C4.97822 0.937542 5.57584 0.671125 6.1993 0.462189C6.68652 0.298871 7.18407 0.177524 7.69227 0.0999708C7.95443 0.0598258 8.21811 0.0339748 8.48301 0.0175519C8.71262 0.00325779 8.94224 -0.00343305 9.17186 0.00173715C9.97172 0.0196808 10.7555 0.142549 11.5219 0.373079C12.0577 0.534267 12.5766 0.738642 13.0763 0.990765C13.7676 1.3396 14.4001 1.77511 14.9883 2.27875C15.5835 2.78847 16.0579 3.39764 16.4819 4.05061C16.7812 4.51167 17.0439 4.99341 17.2702 5.494C17.449 5.88968 17.5832 6.30238 17.6969 6.72147C17.8225 7.18435 17.9089 7.65484 17.9572 8.13202C17.9861 8.42125 18.0032 8.71199 17.9995 8.92367ZM13.4193 5.93712C13.4212 5.85835 13.4087 5.78232 13.3804 5.70872C13.3117 5.52928 13.1535 5.42284 12.9716 5.43561C12.8901 5.44139 12.8132 5.46694 12.7375 5.49613C11.8135 5.85257 10.8899 6.20901 9.96594 6.56545C8.12292 7.27681 6.27959 7.98786 4.43687 8.69983C4.25744 8.76917 4.07374 8.82878 3.90343 8.92032C3.80581 8.97263 3.72248 9.03924 3.67838 9.14568C3.64249 9.23236 3.65952 9.3166 3.72886 9.38016C3.77509 9.42244 3.83044 9.44951 3.88944 9.46836C3.95422 9.48904 4.02022 9.50486 4.0853 9.52462C4.78297 9.73812 5.48034 9.95193 6.17771 10.1666C6.21481 10.1782 6.24401 10.1745 6.27716 10.1533C6.46389 10.0337 6.65215 9.91634 6.8398 9.79804C7.61502 9.31021 8.39055 8.82239 9.16578 8.33396C9.91485 7.86195 10.6636 7.38964 11.4124 6.91733C11.4665 6.88327 11.5237 6.85529 11.5879 6.85194C11.6356 6.84951 11.6904 6.84768 11.7168 6.89847C11.7427 6.94835 11.7028 6.98302 11.6742 7.01769C11.67 7.02256 11.6651 7.02712 11.6605 7.03138C11.3978 7.27164 11.135 7.5119 10.8719 7.75216C10.3963 8.18676 9.92063 8.62106 9.44497 9.05566C9.16669 9.30991 8.88811 9.56447 8.60983 9.81902C8.25004 10.1478 7.89056 10.4765 7.53047 10.8044C7.50189 10.8306 7.49124 10.8604 7.48851 10.8981C7.47239 11.1271 7.45536 11.3561 7.43741 11.5848C7.41643 11.8524 7.39392 12.1198 7.37294 12.3874C7.35499 12.6179 7.33857 12.8485 7.32093 13.079C7.31667 13.134 7.31911 13.1371 7.37446 13.1267C7.54173 13.0957 7.67828 13.006 7.7978 12.8926C8.13813 12.5693 8.4748 12.242 8.81116 11.9148C8.84644 11.8807 8.86925 11.8792 8.90818 11.9084C9.61315 12.4333 10.3196 12.9561 11.0246 13.481C11.1228 13.554 11.2311 13.6012 11.3476 13.6322C11.4139 13.6498 11.482 13.6547 11.5495 13.6416C11.6767 13.617 11.7545 13.5306 11.8123 13.423C11.8634 13.3281 11.8902 13.2244 11.9124 13.1197C12.0441 12.5014 12.1754 11.8828 12.3068 11.2642C12.4796 10.4513 12.6526 9.63807 12.8254 8.82513C12.9957 8.02314 13.1666 7.22115 13.3357 6.41886C13.3691 6.25919 13.4166 6.10196 13.4193 5.93712Z" fill="white"/>
</svg>
