<svg width="75" height="49" viewBox="0 0 75 49" fill="none" xmlns="http://www.w3.org/2000/svg">
<path d="M51 21.125C56.6025 21.125 61.0912 16.6025 61.0912 11C61.0912 5.3975 56.6025 0.875 51 0.875C45.3975 0.875 40.875 5.3975 40.875 11C40.875 16.6025 45.3975 21.125 51 21.125ZM24 21.125C29.6025 21.125 34.0912 16.6025 34.0912 11C34.0912 5.3975 29.6025 0.875 24 0.875C18.3975 0.875 13.875 5.3975 13.875 11C13.875 16.6025 18.3975 21.125 24 21.125ZM24 27.875C16.1363 27.875 0.375 31.8237 0.375 39.6875V48.125H47.625V39.6875C47.625 31.8237 31.8638 27.875 24 27.875ZM51 27.875C50.0213 27.875 48.9075 27.9425 47.7262 28.0438C51.6413 30.8787 54.375 34.6925 54.375 39.6875V48.125H74.625V39.6875C74.625 31.8237 58.8638 27.875 51 27.875Z" fill="#333659"/>
</svg>
